<svg width="50" height="317" fill="none" xmlns="http://www.w3.org/2000/svg"><circle cx="43.982" cy="6.835" r="5.899" transform="rotate(90 43.982 6.835)" fill="#E6E6E6"/><circle cx="5.963" cy="6.835" r="5.899" transform="rotate(90 5.963 6.835)" fill="#E6E6E6"/><circle cx="43.982" cy="158.909" r="5.899" transform="rotate(90 43.982 158.909)" fill="#E6E6E6"/><circle cx="5.963" cy="158.909" r="5.899" transform="rotate(90 5.963 158.909)" fill="#E6E6E6"/><circle cx="43.982" cy="310.982" r="5.899" transform="rotate(90 43.982 310.982)" fill="#E6E6E6"/><circle cx="5.963" cy="310.982" r="5.899" transform="rotate(90 5.963 310.982)" fill="#E6E6E6"/><circle cx="43.982" cy="82.872" r="5.899" transform="rotate(90 43.982 82.872)" fill="#E6E6E6"/><circle cx="5.963" cy="82.872" r="5.899" transform="rotate(90 5.963 82.872)" fill="#E6E6E6"/><circle cx="43.982" cy="234.945" r="5.899" transform="rotate(90 43.982 234.945)" fill="#E6E6E6"/><circle cx="5.963" cy="234.945" r="5.899" transform="rotate(90 5.963 234.945)" fill="#E6E6E6"/><circle cx="43.982" cy="44.854" r="5.899" transform="rotate(90 43.982 44.854)" fill="#E6E6E6"/><circle cx="5.963" cy="44.854" r="5.899" transform="rotate(90 5.963 44.854)" fill="#E6E6E6"/><circle cx="43.982" cy="196.927" r="5.899" transform="rotate(90 43.982 196.927)" fill="#E6E6E6"/><circle cx="5.963" cy="196.927" r="5.899" transform="rotate(90 5.963 196.927)" fill="#E6E6E6"/><circle cx="43.982" cy="120.89" r="5.899" transform="rotate(90 43.982 120.89)" fill="#E6E6E6"/><circle cx="5.963" cy="120.89" r="5.899" transform="rotate(90 5.963 120.89)" fill="#E6E6E6"/><circle cx="43.982" cy="272.963" r="5.899" transform="rotate(90 43.982 272.963)" fill="#E6E6E6"/><circle cx="5.963" cy="272.963" r="5.899" transform="rotate(90 5.963 272.963)" fill="#E6E6E6"/></svg>