<svg width="151" height="24" fill="none" xmlns="http://www.w3.org/2000/svg"><path d="M7.5 20C3.364 20 0 16.636 0 12.5S3.364 5 7.5 5 15 8.364 15 12.5 11.636 20 7.5 20zm0-14.024A6.532 6.532 0 00.976 12.5 6.532 6.532 0 007.5 19.024a6.532 6.532 0 006.524-6.524A6.532 6.532 0 007.5 5.976z" fill="#000"/><path d="M10.56 11.278a.488.488 0 01-.674-.148 2.538 2.538 0 00-2.148-1.177A2.55 2.55 0 005.191 12.5a2.547 2.547 0 004.66 1.424.488.488 0 11.808.546 3.52 3.52 0 01-2.92 1.553A3.527 3.527 0 014.215 12.5a3.527 3.527 0 013.522-3.522 3.51 3.51 0 012.97 1.626.488.488 0 01-.149.674zm11.527 4.7a66.22 66.22 0 002.786-2.338 11.403 11.403 0 001.694-1.918c.467-.672.7-1.33.7-1.974 0-.607-.15-1.083-.448-1.428-.29-.355-.76-.532-1.414-.532-.635 0-1.13.2-1.484.602-.345.392-.532.92-.56 1.582h-1.232c.037-1.045.355-1.853.952-2.422.597-.57 1.367-.854 2.31-.854.961 0 1.722.266 2.282.798.57.532.854 1.265.854 2.198 0 .775-.233 1.53-.7 2.268a9.99 9.99 0 01-1.568 1.932 41.51 41.51 0 01-2.254 1.932h4.816v1.064h-6.734v-.91zm8.207-4.144c0-1.605.261-2.856.784-3.752.522-.905 1.437-1.358 2.744-1.358 1.297 0 2.207.453 2.73 1.358.522.896.784 2.147.784 3.752 0 1.633-.262 2.903-.784 3.808-.523.905-1.433 1.358-2.73 1.358-1.307 0-2.222-.453-2.744-1.358-.523-.905-.784-2.175-.784-3.808zm5.782 0c0-.812-.056-1.498-.168-2.058-.103-.57-.322-1.027-.658-1.372-.327-.345-.803-.518-1.428-.518-.635 0-1.12.173-1.456.518-.327.345-.546.803-.658 1.372-.103.56-.154 1.246-.154 2.058 0 .84.051 1.545.154 2.114.112.57.331 1.027.658 1.372.336.345.821.518 1.456.518.625 0 1.101-.173 1.428-.518.336-.345.555-.803.658-1.372.112-.57.168-1.274.168-2.114zm2.855 4.144a66.286 66.286 0 002.786-2.338 11.403 11.403 0 001.694-1.918c.466-.672.7-1.33.7-1.974 0-.607-.15-1.083-.448-1.428-.29-.355-.76-.532-1.414-.532-.635 0-1.13.2-1.484.602-.346.392-.532.92-.56 1.582h-1.232c.037-1.045.355-1.853.952-2.422.597-.57 1.367-.854 2.31-.854.961 0 1.722.266 2.282.798.57.532.854 1.265.854 2.198 0 .775-.233 1.53-.7 2.268a9.99 9.99 0 01-1.568 1.932 41.51 41.51 0 01-2.254 1.932h4.816v1.064H38.93v-.91zm8.207-4.144c0-1.605.26-2.856.784-3.752.522-.905 1.437-1.358 2.744-1.358 1.297 0 2.207.453 2.73 1.358.522.896.783 2.147.783 3.752 0 1.633-.26 2.903-.784 3.808-.522.905-1.432 1.358-2.73 1.358-1.306 0-2.22-.453-2.743-1.358-.523-.905-.784-2.175-.784-3.808zm5.782 0c0-.812-.056-1.498-.169-2.058-.102-.57-.322-1.027-.657-1.372-.327-.345-.803-.518-1.428-.518-.635 0-1.12.173-1.456.518-.327.345-.547.803-.659 1.372-.102.56-.154 1.246-.154 2.058 0 .84.052 1.545.154 2.114.112.57.332 1.027.658 1.372.336.345.822.518 1.456.518.626 0 1.102-.173 1.428-.518.336-.345.556-.803.658-1.372.113-.57.169-1.274.169-2.114zm8.225-3.556v3.262h3.556v1.05h-3.556v3.36h3.976V17h-5.25V7.228h5.25v1.05h-3.976zM71.053 17l-1.82-2.856L67.483 17h-1.33l2.478-3.808-2.478-3.864h1.442l1.82 2.842 1.736-2.842h1.33l-2.464 3.794L72.495 17h-1.442zm3.969-6.258c.252-.439.625-.803 1.12-1.092.504-.299 1.087-.448 1.75-.448.681 0 1.297.163 1.848.49.56.327.999.789 1.316 1.386.317.588.476 1.274.476 2.058 0 .775-.159 1.465-.476 2.072a3.502 3.502 0 01-3.164 1.918c-.653 0-1.232-.145-1.736-.434-.495-.299-.873-.667-1.134-1.106v5.054h-1.274V9.328h1.274v1.414zm5.208 2.394c0-.579-.117-1.083-.35-1.512a2.41 2.41 0 00-.952-.98 2.578 2.578 0 00-1.302-.336c-.467 0-.9.117-1.302.35a2.51 2.51 0 00-.952.994c-.233.43-.35.929-.35 1.498 0 .579.117 1.087.35 1.526.243.43.56.76.952.994.401.224.835.336 1.302.336.476 0 .91-.112 1.302-.336.401-.233.719-.565.952-.994.233-.439.35-.952.35-1.54zm3.637-5.054a.838.838 0 01-.616-.252.838.838 0 01-.252-.616c0-.243.084-.448.252-.616a.838.838 0 01.616-.252c.233 0 .43.084.588.252a.838.838 0 01.252.616.838.838 0 01-.252.616.777.777 0 01-.588.252zm.616 1.246V17h-1.274V9.328h1.274zm1.695 3.822c0-.793.159-1.484.476-2.072a3.428 3.428 0 011.316-1.386c.57-.327 1.218-.49 1.946-.49.943 0 1.718.229 2.324.686.616.457 1.022 1.092 1.218 1.904h-1.372a1.959 1.959 0 00-.77-1.106c-.373-.27-.84-.406-1.4-.406-.728 0-1.316.252-1.764.756-.448.495-.672 1.2-.672 2.114 0 .924.224 1.638.672 2.142.448.504 1.036.756 1.764.756.56 0 1.027-.13 1.4-.392.373-.261.63-.635.77-1.12h1.372c-.205.784-.616 1.414-1.232 1.89-.616.467-1.386.7-2.31.7-.728 0-1.376-.163-1.946-.49a3.428 3.428 0 01-1.316-1.386c-.317-.597-.476-1.297-.476-2.1zm15.98-.28c0 .243-.014.5-.042.77h-6.132c.047.756.303 1.349.77 1.778.476.42 1.05.63 1.722.63.55 0 1.008-.126 1.372-.378.373-.261.635-.607.784-1.036h1.372a3.33 3.33 0 01-1.232 1.806c-.616.457-1.381.686-2.296.686-.728 0-1.381-.163-1.96-.49a3.493 3.493 0 01-1.344-1.386c-.327-.607-.49-1.307-.49-2.1 0-.793.159-1.489.476-2.086a3.308 3.308 0 011.33-1.372c.579-.327 1.241-.49 1.988-.49.728 0 1.372.159 1.932.476.56.317.989.756 1.288 1.316.308.55.462 1.176.462 1.876zm-1.316-.266c0-.485-.107-.9-.322-1.246a2.03 2.03 0 00-.882-.798 2.63 2.63 0 00-1.218-.28c-.644 0-1.195.205-1.652.616-.448.41-.705.98-.77 1.708h4.844zm9.824 4.494c-.644 0-1.223-.112-1.736-.336-.504-.233-.901-.55-1.19-.952a2.472 2.472 0 01-.448-1.414h1.358c.047.457.233.845.56 1.162.336.308.821.462 1.456.462.607 0 1.083-.15 1.428-.448.355-.308.532-.7.532-1.176 0-.373-.103-.677-.308-.91a1.965 1.965 0 00-.77-.532 12.013 12.013 0 00-1.246-.392c-.644-.168-1.162-.336-1.554-.504a2.578 2.578 0 01-.994-.784c-.271-.364-.406-.85-.406-1.456 0-.532.135-1.003.406-1.414a2.66 2.66 0 011.134-.952c.495-.224 1.059-.336 1.694-.336.915 0 1.661.229 2.24.686.588.457.919 1.064.994 1.82h-1.4c-.047-.373-.243-.7-.588-.98-.345-.29-.803-.434-1.372-.434-.532 0-.966.14-1.302.42-.336.27-.504.653-.504 1.148 0 .355.098.644.294.868.205.224.453.397.742.518.299.112.714.243 1.246.392.644.177 1.162.355 1.554.532a2.51 2.51 0 011.008.798c.28.355.42.84.42 1.456 0 .476-.126.924-.378 1.344-.252.42-.625.76-1.12 1.022-.495.261-1.078.392-1.75.392zm6.677-6.72V14.9c0 .373.079.64.238.798.159.15.434.224.826.224h.938V17h-1.148c-.709 0-1.241-.163-1.596-.49-.355-.327-.532-.863-.532-1.61v-4.522h-.994v-1.05h.994V7.396h1.274v1.932h2.002v1.05h-2.002zm10.35-1.05V17h-1.274v-1.134c-.243.392-.584.7-1.022.924-.43.215-.906.322-1.428.322a3.491 3.491 0 01-1.61-.364 2.786 2.786 0 01-1.134-1.12c-.271-.495-.406-1.097-.406-1.806V9.328h1.26v4.326c0 .756.191 1.34.574 1.75.382.401.905.602 1.568.602.681 0 1.218-.21 1.61-.63.392-.42.588-1.031.588-1.834V9.328h1.274zm1.675 3.808c0-.784.158-1.47.476-2.058a3.454 3.454 0 011.302-1.386 3.653 3.653 0 011.876-.49c.597 0 1.152.14 1.666.42.513.27.905.63 1.176 1.078V6.64h1.288V17h-1.288v-1.442c-.252.457-.626.835-1.12 1.134-.495.29-1.074.434-1.736.434a3.548 3.548 0 01-1.862-.504 3.53 3.53 0 01-1.302-1.414c-.318-.607-.476-1.297-.476-2.072zm6.496.014c0-.579-.117-1.083-.35-1.512a2.416 2.416 0 00-.952-.98 2.498 2.498 0 00-1.302-.35c-.476 0-.91.112-1.302.336-.392.224-.705.55-.938.98-.234.43-.35.933-.35 1.512 0 .588.116 1.101.35 1.54.233.43.546.76.938.994.392.224.826.336 1.302.336.476 0 .91-.112 1.302-.336.401-.233.718-.565.952-.994.233-.439.35-.947.35-1.526zm4.099-5.068a.837.837 0 01-.616-.252.838.838 0 01-.252-.616c0-.243.084-.448.252-.616a.837.837 0 01.616-.252c.233 0 .429.084.588.252a.838.838 0 01.252.616.838.838 0 01-.252.616.778.778 0 01-.588.252zm.616 1.246V17h-1.274V9.328h1.274zm5.517 7.798a3.966 3.966 0 01-1.96-.49 3.56 3.56 0 01-1.372-1.386c-.327-.607-.49-1.307-.49-2.1 0-.784.168-1.475.504-2.072a3.505 3.505 0 011.4-1.386 3.995 3.995 0 011.974-.49c.728 0 1.386.163 1.974.49a3.44 3.44 0 011.386 1.372c.345.597.518 1.293.518 2.086 0 .793-.177 1.493-.532 2.1a3.605 3.605 0 01-1.414 1.386 4.07 4.07 0 01-1.988.49zm0-1.12a2.69 2.69 0 001.288-.322 2.41 2.41 0 00.966-.966c.252-.43.378-.952.378-1.568 0-.616-.121-1.139-.364-1.568-.243-.43-.56-.747-.952-.952a2.61 2.61 0 00-1.274-.322c-.467 0-.896.107-1.288.322-.383.205-.691.523-.924.952-.233.43-.35.952-.35 1.568 0 .625.112 1.153.336 1.582.233.43.541.751.924.966.383.205.803.308 1.26.308z" fill="#000"/></svg>