<svg width="241" height="78" fill="none" xmlns="http://www.w3.org/2000/svg"><path d="M40.457 37.264a31.43 31.43 0 01-.216 3.6H12.377c.192 2.496.984 4.416 2.376 5.76 1.44 1.296 3.192 1.944 5.256 1.944 3.072 0 5.208-1.296 6.408-3.888h13.104a17.749 17.749 0 01-3.672 7.128c-1.728 2.112-3.912 3.768-6.552 4.968-2.64 1.2-5.592 1.8-8.856 1.8-3.936 0-7.44-.84-10.512-2.52-3.072-1.68-5.472-4.08-7.2-7.2C1.001 45.736.137 42.088.137 37.912c0-4.176.84-7.824 2.52-10.944 1.728-3.12 4.128-5.52 7.2-7.2 3.072-1.68 6.6-2.52 10.584-2.52 3.888 0 7.344.816 10.368 2.448 3.024 1.632 5.376 3.96 7.056 6.984 1.728 3.024 2.592 6.552 2.592 10.584zm-12.6-3.24c0-2.112-.72-3.792-2.16-5.04-1.44-1.248-3.24-1.872-5.4-1.872-2.064 0-3.816.6-5.256 1.8-1.392 1.2-2.256 2.904-2.592 5.112h15.408zM70.712 58l-7.704-11.16L56.528 58h-13.32l13.248-20.52-13.608-19.656h13.824l7.704 11.088 6.48-11.088h13.32L70.712 38.056 84.536 58H70.712zm30.88-34.488c1.2-1.872 2.856-3.384 4.968-4.536 2.112-1.152 4.584-1.728 7.416-1.728 3.312 0 6.312.84 9 2.52 2.688 1.68 4.8 4.08 6.336 7.2 1.584 3.12 2.376 6.744 2.376 10.872s-.792 7.776-2.376 10.944c-1.536 3.12-3.648 5.544-6.336 7.272-2.688 1.68-5.688 2.52-9 2.52-2.784 0-5.256-.576-7.416-1.728-2.112-1.152-3.768-2.64-4.968-4.464v24.768H89.28V17.824h12.312v5.688zM119.16 37.84c0-3.072-.864-5.472-2.592-7.2-1.68-1.776-3.768-2.664-6.264-2.664-2.448 0-4.536.888-6.264 2.664-1.68 1.776-2.52 4.2-2.52 7.272s.84 5.496 2.52 7.272c1.728 1.776 3.816 2.664 6.264 2.664 2.448 0 4.536-.888 6.264-2.664 1.728-1.824 2.592-4.272 2.592-7.344zm25.18-24.192c-2.16 0-3.936-.624-5.328-1.872-1.344-1.296-2.016-2.88-2.016-4.752 0-1.92.672-3.504 2.016-4.752C140.404.976 142.18.328 144.34.328c2.112 0 3.84.648 5.184 1.944 1.392 1.248 2.088 2.832 2.088 4.752 0 1.872-.696 3.456-2.088 4.752-1.344 1.248-3.072 1.872-5.184 1.872zm6.12 4.176V58h-12.312V17.824h12.312zm6.474 20.088c0-4.176.84-7.824 2.52-10.944 1.728-3.12 4.104-5.52 7.128-7.2 3.072-1.68 6.576-2.52 10.512-2.52 5.04 0 9.24 1.32 12.6 3.96 3.408 2.64 5.64 6.36 6.696 11.16h-13.104c-1.104-3.072-3.24-4.608-6.408-4.608-2.256 0-4.056.888-5.4 2.664-1.344 1.728-2.016 4.224-2.016 7.488 0 3.264.672 5.784 2.016 7.56 1.344 1.728 3.144 2.592 5.4 2.592 3.168 0 5.304-1.536 6.408-4.608h13.104c-1.056 4.704-3.288 8.4-6.696 11.088-3.408 2.688-7.608 4.032-12.6 4.032-3.936 0-7.44-.84-10.512-2.52-3.024-1.68-5.4-4.08-7.128-7.2-1.68-3.12-2.52-6.768-2.52-10.944zm83.914-.648a31.43 31.43 0 01-.216 3.6h-27.864c.192 2.496.984 4.416 2.376 5.76 1.44 1.296 3.192 1.944 5.256 1.944 3.072 0 5.208-1.296 6.408-3.888h13.104a17.749 17.749 0 01-3.672 7.128c-1.728 2.112-3.912 3.768-6.552 4.968-2.64 1.2-5.592 1.8-8.856 1.8-3.936 0-7.44-.84-10.512-2.52-3.072-1.68-5.472-4.08-7.2-7.2-1.728-3.12-2.592-6.768-2.592-10.944 0-4.176.84-7.824 2.52-10.944 1.728-3.12 4.128-5.52 7.2-7.2 3.072-1.68 6.6-2.52 10.584-2.52 3.888 0 7.344.816 10.368 2.448 3.024 1.632 5.376 3.96 7.056 6.984 1.728 3.024 2.592 6.552 2.592 10.584zm-12.6-3.24c0-2.112-.72-3.792-2.16-5.04-1.44-1.248-3.24-1.872-5.4-1.872-2.064 0-3.816.6-5.256 1.8-1.392 1.2-2.256 2.904-2.592 5.112h15.408z" fill="#FE043C"/></svg>