<svg width="390" height="380" fill="none" xmlns="http://www.w3.org/2000/svg"><path fill="#FFEDDE" d="M0 0h390v380H0z"/><path d="M195.616 137.151c-32.476 0-58.896 26.421-58.896 58.897s26.421 58.897 58.896 58.897c32.476 0 58.897-26.421 58.897-58.897s-26.421-58.897-58.897-58.897zm0 110.02c-28.189 0-51.123-22.934-51.123-51.123 0-28.19 22.933-51.124 51.123-51.124 28.19 0 51.124 22.934 51.124 51.124 0 28.189-22.934 51.123-51.124 51.123z" fill="#FE043C"/><path d="M230.481 177.049a3.887 3.887 0 00-5.274-1.548c-.063.034-.121.074-.182.111a3.885 3.885 0 00-1.367 5.163 31.957 31.957 0 013.883 15.273c0 17.603-14.321 31.924-31.925 31.924s-31.925-14.321-31.925-31.924c0-17.604 14.322-31.925 31.925-31.925 1.689 0 3.385.133 5.039.395a3.88 3.88 0 004.403-3.021c.015-.069.032-.138.044-.209a3.886 3.886 0 00-3.231-4.447 40.052 40.052 0 00-6.255-.491c-21.889 0-39.698 17.808-39.698 39.698 0 21.889 17.808 39.698 39.698 39.698 21.889 0 39.698-17.809 39.698-39.698a39.757 39.757 0 00-4.833-18.999z" fill="#FE043C"/><path d="M220.449 163.569a3.708 3.708 0 00-.591-.481 3.99 3.99 0 00-1.399-.58 3.85 3.85 0 00-2.247.222 3.935 3.935 0 00-.668.358 3.926 3.926 0 00-.595.481 3.946 3.946 0 00-.839 1.264c-.062.147-.11.299-.153.453-.025.091-.05.181-.069.273-.05.249-.073.505-.073.758 0 .257.023.51.073.762a3.945 3.945 0 001.062 1.986 3.945 3.945 0 001.263.844 3.848 3.848 0 001.488.295 3.857 3.857 0 002.065-.598c.03-.019.063-.035.092-.055a3.97 3.97 0 00.591-.486 3.94 3.94 0 001.139-2.748 3.917 3.917 0 00-1.139-2.748zm74.451 88.142l-12.606-102.666a54.212 54.212 0 00-6.669-20.21 54.513 54.513 0 00-7.865-10.629l-.339-.358c-2.59-2.733-6.464-3.461-9.872-1.856-3.406 1.605-5.31 5.058-4.851 8.795l15.979 130.144c.051.418.122.828.21 1.232 1.328 6.049 6.731 10.37 12.892 10.369.535 0 1.076-.032 1.619-.099 4.293-.527 7.856-3.07 9.856-6.562a13.12 13.12 0 001.048-2.322c.619-1.821.848-3.805.598-5.838zM260.414 123.84c-.019-.156-.07-.571.45-.817a.886.886 0 01.377-.093c.288 0 .461.183.538.265l.34.358a46.72 46.72 0 016.742 9.113 46.472 46.472 0 015.719 17.326l6.718 54.717-10.792 1.325-10.092-82.194zm26.435 131.468a5.443 5.443 0 01-4.397 3.409 5.44 5.44 0 01-6.059-4.734l-4.94-40.233 10.792-1.325 4.94 40.233a5.405 5.405 0 01-.336 2.65zM143.933 118.88a3.886 3.886 0 00-4.331 3.384l-3.535 28.79a9.257 9.257 0 01-8.664 8.145l-2.577-.316 4.649-37.862a3.887 3.887 0 00-7.715-.948l-4.649 37.862-2.579-.316a9.257 9.257 0 01-6.435-10l3.535-28.789a3.887 3.887 0 00-7.716-.948l-3.534 28.79c-.885 7.203 2.792 13.956 8.993 17.196l-13.222 85.094-.005.029a13.43 13.43 0 002.623 10.177 13.422 13.422 0 009.112 5.23l.071.009c.563.069 1.125.103 1.683.103 3.074 0 6.029-1.039 8.463-3.003a13.424 13.424 0 004.98-9.303l7.815-85.693c6.802-1.643 12.004-7.306 12.888-14.51l3.535-28.79a3.888 3.888 0 00-3.385-4.331zm-28.594 132.618a5.716 5.716 0 01-2.12 3.96 5.7 5.7 0 01-4.315 1.234l-.07-.008a5.712 5.712 0 01-3.879-2.226 5.718 5.718 0 01-1.119-4.319l13.115-84.391 3.067.376.004.001h.003l3.065.376-7.751 84.997z" fill="#FE043C"/></svg>